<svg width="92.56649mm" height="135.7904mm" version="1.1" viewBox="0 0 92.56649 135.7904" xmlns="http://www.w3.org/2000/svg">
  <defs>
    <clipPath id="clipPath4538">
      <path d="m466.751 316.25h157.849v448.849h-157.849z"/>
    </clipPath>
    <clipPath id="clipPath4630">
      <path d="m328.416 340.56h138.335v396.395h-138.335z"/>
    </clipPath>
  </defs>
  <g transform="translate(136.0091 -69.1827)">
    <g transform="matrix(.3527778 0 0 -.3527778 -254.3569 327.1705)">
      <g transform="matrix(1 0 0 1.001982 0 -.6906933)">
        <g clip-path="url(#clipPath4538)">
          <g transform="translate(420.3838,594.3184)">
            <path d="m0 0h-30.796v-177.525h154.325v177.525z" fill="none" stroke="#3b78a8" stroke-miterlimit="10" stroke-width="4"/>
          </g>
          <g transform="translate(591.5312,369.4033)">
            <path d="m0 0c-5.409 9.113-15.346 15.225-26.721 15.225h-196.12c-17.152 0-31.056-13.905-31.056-31.058v-2.813c0-1.305 1.061-2.367 2.366-2.367h253.5c1.305 0 2.367 1.062 2.367 2.367v2.813c0 5.78-1.575 11.19-4.336 15.833z" fill="none" stroke="#3b78a8" stroke-miterlimit="10" stroke-width="4"/>
          </g>
          <g transform="translate(370.9487,384.6279)">
            <path d="m0 0h193.144c2.002 0 3.937-0.252 5.832-0.614v1.721c0 4.589-0.992 8.946-2.781 12.864-4.89 10.737-15.709 18.194-28.276 18.194h-144.235c-17.153 0-31.057-13.904-31.057-31.058v-1.454c1.44 0.204 2.9 0.347 4.397 0.347z" fill="none" stroke="#3b78a8" stroke-miterlimit="10" stroke-width="4"/>
          </g>
          <g transform="translate(543.9131,663.1494)">
            <path d="m0 0h-154.325c-6.503 0-12.588-1.804-17.777-4.939-10.006-6.051-16.686-17.048-16.639-29.607 0.069-18.116 14.465-33.208 32.488-34.206v-0.025l0.295-1e-3c0.121-5e-3 0.236-0.026 0.356-0.031 0.989-0.035 1.964-0.016 2.933 0.03l154.404-0.052 1e-3 0.056c12.79 0.636 23.777 8.361 29.153 19.257 2.242 4.536 3.512 9.623 3.527 14.972 0.069 19.07-15.363 34.546-34.416 34.546z" fill="none" stroke="#3b78a8" stroke-miterlimit="10" stroke-width="4"/>
          </g>
          <g transform="translate(565.6772,701.7705)">
            <path d="m0 0 13.029 23.362c0.852 1.532-0.256 3.414-2.008 3.414h-219.896c-1.752 0-2.86-1.882-2.007-3.414l13.028-23.362 6.854-12.297 14.679-26.332c0.078 1e-3 0.154 8e-3 0.232 8e-3h154.325c0.077 0 0.151-0.011 0.227-0.012l14.683 26.336z" fill="none" stroke="#3b78a8" stroke-miterlimit="10" stroke-width="4"/>
          </g>
          <g transform="translate(466.7505,728.5469)">
            <path d="m0 0v-380.156" fill="none" stroke="#3b78a8" stroke-miterlimit="10"/>
          </g>
          <g transform="translate(521.8638,348.3906)">
            <path d="m0 0c0 2.951-1.074 31.411-12.349 35.623-1.61 28.373-14.13 32.779-14.13 32.779v177.572s28.635 35.182 0 68.785l18.426 65.397" fill="none" stroke="#3b78a8" stroke-miterlimit="10"/>
          </g>
          <g transform="translate(561.0576,348.3906)">
            <path d="m0 0c0 2.951 0 31.948-22.908 35.623-1.611 28.373-14.13 32.779-14.13 32.779v177.572s50.192 36.17 0 68.785l32.475 65.397" fill="none" stroke="#3b78a8" stroke-miterlimit="10"/>
          </g>
          <g transform="translate(411.6372,348.3906)">
            <path d="m0 0c0 2.951 1.074 31.411 12.349 35.623 1.61 28.373 14.13 32.779 14.13 32.779v177.572s-28.635 35.182 0 68.785l-18.426 65.397" fill="none" stroke="#3b78a8" stroke-miterlimit="10"/>
          </g>
          <g transform="translate(372.4434,348.3906)">
            <path d="m0 0c0 2.951 0 31.948 22.908 35.623 1.61 28.373 14.13 32.779 14.13 32.779v177.572s-50.192 36.17 0 68.785l-32.475 65.397" fill="none" stroke="#3b78a8" stroke-miterlimit="10"/>
          </g>
          <g transform="translate(360.002,611.311)">
            <path d="m0 0h213.534" fill="none" stroke="#3b78a8" stroke-miterlimit="10"/>
          </g>
          <g transform="translate(360.002,645.8706)">
            <path d="m0 0h213.534" fill="none" stroke="#3b78a8" stroke-miterlimit="10"/>
          </g>
          <g transform="translate(377.7524,683.9561)">
            <path d="m0 0h177.996" fill="none" stroke="#3b78a8" stroke-miterlimit="10"/>
          </g>
          <g transform="translate(368.1562,400.71)">
            <path d="m0 0h197.925" fill="none" stroke="#3b78a8" stroke-miterlimit="10"/>
          </g>
          <g transform="translate(389.5879,441.5449)">
            <path d="m0 0h154.325" fill="none" stroke="#3b78a8" stroke-miterlimit="10"/>
          </g>
          <g transform="translate(389.5879,478.7705)">
            <path d="m0 0h154.325" fill="none" stroke="#3b78a8" stroke-miterlimit="10"/>
          </g>
          <g transform="translate(389.5879,519.5752)">
            <path d="m0 0h154.325" fill="none" stroke="#3b78a8" stroke-miterlimit="10"/>
          </g>
          <g transform="translate(389.5879,559.1792)">
            <path d="m0 0h154.325" fill="none" stroke="#3b78a8" stroke-miterlimit="10"/>
          </g>
          <g transform="translate(340.4678,366.5088)">
            <path d="m0 0h252.566" fill="none" stroke="#3b78a8" stroke-miterlimit="10"/>
          </g>
          <g transform="translate(364.584,707.5801)">
            <path d="m0 0h204.333" fill="none" stroke="#3b78a8" stroke-miterlimit="10"/>
          </g>
          <g transform="translate(355.1719,628.603)">
            <path d="m0 0h223.157" fill="none" stroke="#3b78a8" stroke-miterlimit="10"/>
          </g>
        </g>
      </g>
      <g clip-path="url(#clipPath4630)">
        <g transform="translate(591.686,369.6152)">
          <path d="m0 0c-4.583 7.722-12.43 13.245-21.633 14.774v1.578c0 4.594-0.993 8.957-2.784 12.879-4.897 10.75-15.729 18.217-28.312 18.217h5.052v177.746h-154.517v-177.746h5.051c-17.173 0-31.095-13.922-31.095-31.096v-1.456c1.442 0.205 2.904 0.347 4.403 0.347h0.718c-17.174 0-31.095-13.922-31.095-31.096v-2.816c0-1.308 1.062-2.37 2.369-2.37h253.815c1.307 0 2.37 1.062 2.37 2.37v2.816c0 5.788-1.577 11.204-4.342 15.853" fill="#e6cfb2"/>
        </g>
        <g transform="translate(367.7007,702.395)">
          <path d="m0 0 6.862-12.313 14.698-26.364c0.077 0 0.153 7e-3 0.232 7e-3 -6.511 0-12.604-1.806-17.799-4.945-10.018-6.058-16.706-17.069-16.66-29.644 0.069-18.138 14.482-33.248 32.528-34.248v-0.025l0.296-1e-3c0.12-5e-3 0.236-0.026 0.357-0.03 0.989-0.036 1.965-0.017 2.935 0.03l154.596-0.053 2e-3 0.056c12.806 0.637 23.806 8.372 29.188 19.281 2.245 4.542 3.517 9.635 3.532 14.99 0.069 19.094-15.383 34.589-34.459 34.589 0.077 0 0.151-0.011 0.228-0.011l14.702 26.368 6.862 12.313 13.044 23.391c0.854 1.533-0.255 3.418-2.009 3.418h-220.17c-1.754 0-2.863-1.885-2.009-3.418z" fill="#e6cfb2"/>
        </g>
        <g transform="translate(420.3262,594.8091)">
          <path d="m0 0h-30.834v-177.747h154.517v177.747z" fill="none" stroke="#3b78a8" stroke-miterlimit="10" stroke-width="4"/>
        </g>
        <g transform="translate(591.686,369.6152)">
          <path d="m0 0c-5.416 9.124-15.365 15.243-26.754 15.243h-196.363c-17.174 0-31.095-13.922-31.095-31.097v-2.816c0-1.307 1.062-2.369 2.369-2.369h253.815c1.307 0 2.37 1.062 2.37 2.369v2.816c0 5.789-1.577 11.205-4.342 15.854z" fill="none" stroke="#3b78a8" stroke-miterlimit="10" stroke-width="4"/>
        </g>
        <g transform="translate(370.8301,384.8584)">
          <path d="m0 0h193.383c2.005 0 3.942-0.253 5.84-0.615v1.724c0 4.594-0.993 8.955-2.785 12.879-4.896 10.75-15.728 18.216-28.311 18.216h-144.414c-17.173 0-31.095-13.921-31.095-31.095v-1.457c1.442 0.205 2.903 0.348 4.403 0.348z" fill="none" stroke="#3b78a8" stroke-miterlimit="10" stroke-width="4"/>
        </g>
        <g transform="translate(544.0088,663.7256)">
          <path d="m0 0h-154.517c-6.51 0-12.603-1.806-17.798-4.945-10.018-6.058-16.706-17.07-16.66-29.644 0.069-18.139 14.482-33.249 32.528-34.248v-0.026h0.296c0.12-6e-3 0.236-0.026 0.357-0.031 0.989-0.035 1.966-0.017 2.936 0.03l154.595-0.053 2e-3 0.056c12.806 0.638 23.805 8.372 29.188 19.281 2.245 4.542 3.517 9.636 3.531 14.991 0.07 19.093-15.381 34.589-34.458 34.589z" fill="none" stroke="#3b78a8" stroke-miterlimit="10" stroke-width="4"/>
        </g>
        <g transform="translate(565.8003,702.3945)">
          <path d="m0 0 13.045 23.392c0.853 1.533-0.256 3.418-2.01 3.418h-220.169c-1.755 0-2.864-1.885-2.01-3.418l13.044-23.392 6.863-12.313 14.697-26.364c0.078 1e-3 0.154 8e-3 0.232 8e-3h154.516c0.078 0 0.152-0.011 0.229-0.012l14.701 26.368z" fill="none" stroke="#3b78a8" stroke-miterlimit="10" stroke-width="4"/>
        </g>
        <g transform="translate(409.4097,594.855)">
          <path d="m0 0v-177.792" fill="none" stroke="#3b78a8" stroke-miterlimit="10" stroke-width="4"/>
        </g>
        <g transform="translate(438.0801,594.855)">
          <path d="m0 0v-177.792" fill="none" stroke="#3b78a8" stroke-miterlimit="10" stroke-width="4"/>
        </g>
        <g transform="translate(466.7505,594.855)">
          <path d="m0 0v-177.792" fill="none" stroke="#3b78a8" stroke-miterlimit="10" stroke-width="4"/>
        </g>
        <g transform="translate(495.4209,594.855)">
          <path d="m0 0v-177.792" fill="none" stroke="#3b78a8" stroke-miterlimit="10" stroke-width="4"/>
        </g>
        <g transform="translate(524.0913,594.855)">
          <path d="m0 0v-177.792" fill="none" stroke="#3b78a8" stroke-miterlimit="10" stroke-width="4"/>
        </g>
      </g>
    </g>
  </g>
</svg>
