<svg width="348.6011mm" height="105.0421mm" version="1.1" viewBox="0 0 348.6011 105.0421" xmlns="http://www.w3.org/2000/svg">
  <g transform="translate(52.66326 -96.61692)">
    <g stroke="#000" stroke-width=".2645833px">
      <path transform="matrix(.2645833 0 0 .2645833 -52.66326 96.61692)" d="m1317.045 0.5117188-43.4375 1.009766-1.0097 175.7656h-154.5528l-21.2129 43.4375v131.3203l21.2129 43.43555 196.9805 1.00976 2.0195-395.9785zm-1141.473 44.44531-174.7559 351.5332 44.44727-1.00976 131.3184-263.6504 129.3008 260.6211 45.45703 3.0293-175.7676-350.5234zm374.7676 130.3105-133.3398 1.00976-20.20312 42.42774-2.02149 176.7754 45.45703 1.00976-2.01953-155.5625 22.22266-21.21289 67.67968 1.00977 22.22461-45.45703zm283.8516 0-1.00977 44.44726 175.7676-1.01172 1.0098 44.44727h-153.543l-23.23438 43.4375-1.00976 45.45703 23.23242 42.42578 199-1.00976v-173.7461l-23.2324-44.44726h-196.9805zm-240.416 1.00976-45.45703 88.89454 1.00976 44.44531 42.42774 86.87304h199l-1.00977-45.45507h-175.7676l-21.2129-42.42774 1.00977-45.45703 20.20313-43.43555 176.7773 1.00977-1.00977-43.4375-195.9707-1.00977zm547.5019 43.4375 130.3106 1.00977 2.0195 132.3301-131.3183-2.02149-1.0118-131.3184zm-263.6484 87.88282 132.3301 1.00976-1.0098 42.42578-131.3203-1.00976v-42.42578z" fill-opacity=".9670782" stroke-width=".9999999px"/>
    </g>
  </g>
</svg>
