<svg xmlns="http://www.w3.org/2000/svg" xmlns:xlink="http://www.w3.org/1999/xlink" version="1.1" x="0px" y="0px" viewBox="0 0 96 120" enable-background="new 0 0 96 96" xml:space="preserve"><path d="M42.424,40.023l0.509-1.411c-0.355-0.128-8.787-3.103-17.609-0.002l0.497,1.415C34.125,37.108,42.343,39.994,42.424,40.023z  "/><path d="M42.424,46.905l0.509-1.411c-0.355-0.128-8.787-3.102-17.609-0.002l0.497,1.415C34.125,43.99,42.343,46.876,42.424,46.905z"/><path d="M42.933,52.376c-0.355-0.128-8.787-3.102-17.609-0.002l0.497,1.415c8.303-2.917,16.521-0.031,16.603-0.002L42.933,52.376z"/><path d="M70.173,40.023l0.509-1.411c-0.355-0.129-8.79-3.101-17.609-0.002l0.497,1.415C61.873,37.108,70.091,39.994,70.173,40.023z"/><path d="M70.173,46.905l0.509-1.411c-0.355-0.128-8.79-3.103-17.609-0.002l0.497,1.415C61.873,43.99,70.091,46.876,70.173,46.905z"/><path d="M76.499,27.571l-0.495-0.179c-0.253-0.091-6.301-2.241-14.559-2.241c-4.764,0-9.286,0.724-13.446,2.153  c-1.258-0.421-6.89-2.153-14.303-2.153c-4.858,0-9.466,0.753-13.693,2.239l-0.501,0.176v2.442H14.75V70.85h66.5V30.008h-4.751  V27.571z M76.323,35.419l0.175,0.067l1.736,0.667l-1.736,4.514l-1.5,3.901l-3.185,8.281l-1.922,2.146l0.005-1.298l0.006-1.569  v-0.013l5.096-13.251L76.323,35.419z M48.75,28.641c3.932-1.316,8.196-1.99,12.695-1.99c6.666,0,11.957,1.486,13.554,1.989v6.046  l-6.546,17.021l0,0.044c-3.136-0.728-9.154-1.564-15.379,0.624l0.497,1.415c6.037-2.122,12.014-1.175,14.866-0.489l-0.059,5.634  l4.646-5.186l1.976-5.1v15.465c-2.073-0.623-7.148-1.916-13.554-1.916c-4.48,0-8.743,0.649-12.695,1.914V28.641z M21.001,28.633  c3.93-1.315,8.198-1.982,12.695-1.982c6.688,0,11.976,1.492,13.554,1.989v35.475c-2.069-0.622-7.142-1.917-13.554-1.917  c-4.479,0-8.744,0.64-12.695,1.904V28.633z M79.75,69.35h-63.5V31.508h3.251v34.696l0.999-0.351  c4.068-1.429,8.508-2.154,13.196-2.154c7.982,0,13.99,2.13,14.049,2.152l0.251,0.09l0.251-0.088  c4.067-1.429,8.507-2.154,13.196-2.154c7.981,0,13.99,2.13,14.049,2.152l1.004,0.362V44.777l3.251-8.393V69.35z M79.75,31.508v3.623  l-3.251-1.25v-2.372H79.75z"/><path d="M28.229,86.25c-1.236,0-2.242,1.006-2.242,2.242s1.006,2.242,2.242,2.242s2.242-1.006,2.242-2.242  S29.465,86.25,28.229,86.25z M28.229,90.234c-0.96,0-1.742-0.782-1.742-1.742s0.782-1.742,1.742-1.742s1.742,0.782,1.742,1.742  S29.189,90.234,28.229,90.234z"/><path d="M8.512,27.813L7.521,29.82l-2.216,0.322l1.604,1.563L6.53,33.913l1.982-1.042l1.982,1.042l-0.378-2.207l1.604-1.563  L9.503,29.82L8.512,27.813z M9.579,31.531l0.251,1.468l-1.318-0.692l-1.318,0.692l0.251-1.468l-1.066-1.04l1.474-0.214l0.659-1.335  l0.659,1.335l1.474,0.214L9.579,31.531z"/><path d="M28.976,8.205l-0.684-1.386l-0.684,1.386l-1.53,0.223l1.107,1.079l-0.261,1.523l1.368-0.719l1.368,0.719l-0.261-1.523  l1.107-1.079L28.976,8.205z M28.996,10.116l-0.704-0.37l-0.704,0.37l0.134-0.784l-0.57-0.556l0.788-0.114l0.352-0.713l0.352,0.713  l0.788,0.114l-0.57,0.556L28.996,10.116z"/><path d="M87.087,69.951l1.368,0.719l-0.261-1.523l1.107-1.079l-1.53-0.223l-0.684-1.386l-0.684,1.386l-1.53,0.223l1.107,1.079  l-0.261,1.523L87.087,69.951z M85.947,68.416l0.788-0.114l0.352-0.713l0.352,0.713l0.788,0.114l-0.57,0.556l0.134,0.784l-0.704-0.37  l-0.704,0.37l0.134-0.784L85.947,68.416z"/><path d="M87.087,14.136l-0.902,2.777h-2.919l2.361,1.717l-0.902,2.776l2.362-1.716l2.362,1.716l-0.902-2.776l2.361-1.717h-2.919  L87.087,14.136z M87.959,18.438l0.539,1.658l-1.411-1.025l-1.411,1.025l0.539-1.658l-1.411-1.026h1.745l0.539-1.659l0.539,1.659  h1.745L87.959,18.438z"/><path d="M79.131,5.267c-1.236,0-2.242,1.006-2.242,2.242s1.006,2.242,2.242,2.242s2.242-1.006,2.242-2.242  S80.367,5.267,79.131,5.267z M79.131,9.251c-0.96,0-1.742-0.782-1.742-1.742s0.782-1.742,1.742-1.742s1.742,0.782,1.742,1.742  S80.091,9.251,79.131,9.251z"/><path d="M88.623,47.201c-0.985,0-1.786,0.801-1.786,1.786s0.801,1.786,1.786,1.786s1.786-0.801,1.786-1.786  S89.608,47.201,88.623,47.201z M88.623,50.273c-0.709,0-1.286-0.577-1.286-1.286s0.577-1.286,1.286-1.286s1.286,0.577,1.286,1.286  S89.332,50.273,88.623,50.273z"/><path d="M12.597,17.155c0,1.302,1.059,2.361,2.361,2.361s2.361-1.059,2.361-2.361s-1.059-2.361-2.361-2.361  S12.597,15.854,12.597,17.155z M14.958,15.294c1.026,0,1.861,0.835,1.861,1.861s-0.835,1.861-1.861,1.861s-1.861-0.835-1.861-1.861  S13.932,15.294,14.958,15.294z"/><path d="M21.983,88.514c0.326,0.083,0.655,0.156,0.988,0.223l0.099-0.49c-0.325-0.065-0.646-0.138-0.964-0.217L21.983,88.514z"/><path d="M18.24,87.173c0.597,0.283,1.216,0.54,1.838,0.763l0.169-0.471c-0.607-0.217-1.21-0.468-1.793-0.744L18.24,87.173z"/><path d="M6.864,71.81c0.097,0.653,0.228,1.309,0.388,1.95l0.485-0.122c-0.157-0.625-0.285-1.265-0.379-1.901L6.864,71.81z"/><path d="M7.146,68.852c0-0.327,0.008-0.655,0.024-0.985l-0.499-0.024c-0.017,0.337-0.025,0.674-0.025,1.009  c0,0.328,0.008,0.655,0.024,0.98l0.499-0.024C7.154,69.49,7.146,69.172,7.146,68.852z"/><path d="M7.831,75.663C8.052,76.282,8.309,76.9,8.592,77.5l0.452-0.214c-0.277-0.585-0.527-1.188-0.743-1.792L7.831,75.663z"/><path d="M11.893,82.448c0.441,0.49,0.914,0.964,1.404,1.41l0.337-0.37c-0.478-0.435-0.939-0.897-1.37-1.375L11.893,82.448z"/><path d="M9.53,79.254c0.339,0.567,0.711,1.124,1.104,1.655l0.402-0.297c-0.383-0.519-0.746-1.062-1.077-1.615L9.53,79.254z"/><path d="M14.833,85.124c0.532,0.396,1.088,0.769,1.653,1.108l0.258-0.429c-0.551-0.331-1.093-0.695-1.612-1.081L14.833,85.124z"/><path d="M7.534,64.949l-0.49-0.098c-0.066,0.333-0.125,0.665-0.174,0.998l0.494,0.073C7.412,65.599,7.469,65.274,7.534,64.949z"/><path d="M89.182,76.983l0.498,0.046c0.031-0.336,0.05-0.675,0.057-1.017l-0.5-0.01C89.23,76.332,89.212,76.659,89.182,76.983z"/><path d="M88.121,81.128l0.459,0.199c0.295-0.679,0.538-1.387,0.721-2.104L88.817,79.1C88.64,79.791,88.406,80.474,88.121,81.128z"/><path d="M82.51,87.442l0.252,0.432c0.639-0.373,1.253-0.8,1.826-1.27l-0.317-0.387C83.718,86.67,83.126,87.082,82.51,87.442z"/><path d="M85.818,84.731l0.374,0.332c0.493-0.555,0.944-1.152,1.342-1.773l-0.421-0.27C86.729,83.62,86.293,84.196,85.818,84.731z"/><path d="M78.524,88.986l0.104,0.489c0.723-0.154,1.439-0.368,2.131-0.636l-0.181-0.466C79.912,88.631,79.221,88.837,78.524,88.986z"/><path d="M75.408,89.281l-0.01,0.5c0.096,0.002,0.192,0.003,0.288,0.003c0.245,0,0.488-0.006,0.73-0.019l-0.025-0.499  C76.065,89.282,75.739,89.288,75.408,89.281z"/><rect x="88.373" y="36.377" width="0.5" height="2"/><rect x="88.373" y="28.377" width="0.5" height="2"/><rect x="88.373" y="32.377" width="0.5" height="2"/><rect x="88.373" y="40.377" width="0.5" height="2"/><text x="0" y="111" fill="#000000" font-size="5px" font-weight="bold" font-family="'Helvetica Neue', Helvetica, Arial-Unicode, Arial, Sans-serif">Created by Scribble.liners</text><text x="0" y="116" fill="#000000" font-size="5px" font-weight="bold" font-family="'Helvetica Neue', Helvetica, Arial-Unicode, Arial, Sans-serif">from the Noun Project</text></svg>