
<svg width="63px" height="85px" viewBox="0 0 63 85" version="1.1" xmlns="http://www.w3.org/2000/svg" xmlns:xlink="http://www.w3.org/1999/xlink">
    <defs>
        <linearGradient x1="50%" y1="0%" x2="50%" y2="100%" id="linearGradient-1">
            <stop stop-color="#B2EE61" offset="0%"></stop>
            <stop stop-color="#7AD832" offset="100%"></stop>
        </linearGradient>
        <linearGradient x1="83.8736538%" y1="24.7773159%" x2="9.07029478%" y2="78.2531139%" id="linearGradient-2">
            <stop stop-color="#DAFF9B" offset="0%"></stop>
            <stop stop-color="#B3FF62" offset="100%"></stop>
        </linearGradient>
    </defs>
    <g id="Page-1" stroke="none" stroke-width="1" fill="none" fill-rule="evenodd">
        <g id="Artboard" transform="translate(-141.000000, -23.000000)" fill-rule="nonzero">
            <g id="Icon" transform="translate(141.000000, 23.000000)">
                <g id="Group" transform="translate(19.000000, 42.500000) scale(-1, 1) translate(-19.000000, -42.500000) ">
                    <path d="M33.367,13.558 L11.587,0.983 C10.452,0.328 9.308,0.256 8.341,0.795 L1.846,4.545 C1.844,4.546 1.842,4.548 1.84,4.549 C0.762,5.175 0.143,6.507 0.143,8.208 L0.143,63.566 C0.143,66.478 1.885,69.766 4.109,71.05 L25.889,83.626 C26.521,83.991 27.157,84.174 27.758,84.174 C28.251,84.174 28.722,84.05 29.151,83.803 C29.156,83.801 29.158,83.799 29.161,83.797 L35.664,80.043 C36.725,79.411 37.332,78.083 37.332,76.4 L37.332,21.044 C37.331,18.13 35.59,14.841 33.367,13.558 L33.367,13.558 Z" id="Shape" fill="#F0F0F0"></path>
                    <path d="M26.741,72.915 C26.915,72.915 27.088,72.871 27.241,72.782 C27.552,72.603 27.741,72.273 27.741,71.915 L27.741,25.644 C27.741,25.288 27.552,24.956 27.241,24.779 L4.753,11.793 C4.444,11.616 4.063,11.616 3.753,11.793 C3.443,11.972 3.253,12.302 3.253,12.66 L3.253,58.931 C3.253,59.288 3.443,59.619 3.753,59.797 L26.241,72.782 C26.396,72.871 26.568,72.915 26.741,72.915 L26.741,72.915 Z" id="Shape" fill="#FFFFFF"></path>
                    <path d="M26.741,72.915 C26.915,72.915 27.088,72.871 27.241,72.782 C27.552,72.603 27.741,72.273 27.741,71.915 L27.741,25.644 C27.741,25.288 27.552,24.956 27.241,24.779 L4.753,11.793 C4.444,11.616 4.063,11.616 3.753,11.793 C3.443,11.972 3.253,12.302 3.253,12.66 L3.253,58.931 C3.253,59.288 3.443,59.619 3.753,59.797 L26.241,72.782 C26.396,72.871 26.568,72.915 26.741,72.915 L26.741,72.915 Z M5.253,14.392 L25.741,26.222 L25.741,70.183 L5.253,58.354 L5.253,14.392 Z" id="Shape" fill="#A0A0A0"></path>
                    <path d="M15.998,67.293 C15.049,66.745 14.065,66.685 13.3,67.125 C12.536,67.567 12.097,68.448 12.097,69.545 C12.097,71.424 13.371,73.631 14.999,74.569 C15.528,74.875 16.067,75.029 16.575,75.029 C16.975,75.029 17.356,74.932 17.696,74.736 C18.46,74.295 18.897,73.413 18.897,72.317 C18.897,70.439 17.624,68.233 15.998,67.293 M16.694,73.006 C16.598,73.063 16.339,73.034 15.998,72.837 C14.985,72.252 14.097,70.715 14.097,69.545 C14.097,69.152 14.203,68.913 14.3,68.857 C14.329,68.841 14.371,68.831 14.424,68.831 C14.556,68.831 14.757,68.887 14.998,69.026 C16.01,69.609 16.897,71.148 16.897,72.317 C16.897,72.709 16.793,72.948 16.694,73.006" id="Shape" fill="#A0A0A0"></path>
                    <path d="M12.307,14.827 L17.69,17.934 C17.847,18.026 18.019,18.069 18.189,18.069 C18.535,18.069 18.871,17.889 19.056,17.569 C19.331,17.09 19.167,16.478 18.69,16.202 L13.307,13.095 C12.829,12.818 12.216,12.981 11.941,13.461 C11.663,13.938 11.827,14.551 12.307,14.827" id="Path" fill="#A0A0A0"></path>
                    <path d="M33.367,13.558 L11.587,0.983 C10.452,0.328 9.308,0.256 8.341,0.795 L1.846,4.545 C1.844,4.546 1.842,4.548 1.84,4.549 C0.762,5.175 0.143,6.507 0.143,8.208 L0.143,63.566 C0.143,66.478 1.885,69.766 4.109,71.05 L25.889,83.626 C26.521,83.991 27.157,84.174 27.758,84.174 C28.251,84.174 28.722,84.05 29.151,83.803 C29.156,83.801 29.158,83.799 29.161,83.797 L35.664,80.043 C36.725,79.411 37.332,78.083 37.332,76.4 L37.332,21.044 C37.331,18.13 35.59,14.841 33.367,13.558 L33.367,13.558 Z M2.143,8.209 C2.143,7.269 2.412,6.528 2.846,6.278 C3.26,6.037 3.816,6.288 4.109,6.457 L25.889,19.03 C27.495,19.959 28.852,22.592 28.852,24.784 L28.852,80.141 C28.852,81.083 28.584,81.823 28.15,82.073 C27.736,82.311 27.183,82.064 26.889,81.894 L5.108,69.32 C3.501,68.391 2.142,65.757 2.142,63.567 L2.142,8.209 L2.143,8.209 Z M35.331,76.402 C35.331,77.335 35.065,78.072 34.65,78.319 L30.835,80.521 C30.842,80.396 30.852,80.272 30.852,80.141 L30.852,24.784 C30.852,21.871 29.111,18.583 26.889,17.298 L5.324,4.848 L9.335,2.533 C9.75,2.3 10.298,2.549 10.588,2.716 L32.368,15.292 C33.974,16.218 35.332,18.854 35.332,21.045 L35.332,76.402 L35.331,76.402 Z" id="Shape" fill="#A0A0A0"></path>
                </g>
                <g id="Group-2" transform="translate(25.000000, 22.000000)">
                    <path d="M0.311631799,32.6288231 L18.6890042,41.935026 C18.8607197,42.021658 19.1386444,42.021658 19.3116318,41.935026 L37.6883682,32.6288231 C37.8607197,32.5421911 38,32.3150227 38,32.1212237 L38,9.87925759 C38,9.68481686 37.8607197,9.45764848 37.6883682,9.37101647 L19.3116318,0.0654552955 C19.1392803,-0.0218184318 18.8607197,-0.0218184318 18.6890042,0.0654552955 L0.311631799,9.37101647 C0.139916318,9.4582902 0,9.68481686 0,9.87925759 L0,32.1212237 C0,32.3150227 0.140552301,32.5421911 0.311631799,32.6288231 Z" id="Path" fill="url(#linearGradient-1)"></path>
                    <path d="M0.311631799,32.6288231 L18.6890042,41.935026 C18.8607197,42.021658 19.1386444,42.021658 19.3116318,41.935026 L37.6883682,32.6288231 C37.8607197,32.5421911 38,32.3150227 38,32.1212237 L38,9.87925759 C38,9.68481686 37.8607197,9.45764848 37.6883682,9.37101647 L19.3116318,0.0654552955 C19.1392803,-0.0218184318 18.8607197,-0.0218184318 18.6890042,0.0654552955 L0.311631799,9.37101647 C0.139916318,9.4582902 0,9.68481686 0,9.87925759 L0,32.1212237 C0,32.3150227 0.140552301,32.5421911 0.311631799,32.6288231 Z M18.961205,19.8117778 C18.9872803,19.8130613 19.0120837,19.8130613 19.038159,19.8117778 C19.0127197,19.8130613 18.9872803,19.8130613 18.961205,19.8117778 Z M36.782728,11.2538188 L36.782728,31.363354 C36.782728,31.5571531 36.6434477,31.7843214 36.4710962,31.8715952 L19.9202678,40.2524399 C19.7479163,40.3390719 19.608636,40.2524399 19.608636,40.0579991 L19.608636,19.9484639 C19.608636,19.7553066 19.4718996,19.6673911 19.304,19.752098 L19.2963682,19.7546649 L19.3109958,19.7488894 L36.4698243,11.0587363 C36.6434477,10.9727461 36.782728,11.0593781 36.782728,11.2538188 Z M2.27682008,9.75027216 L18.6896402,1.4400165 C18.8613556,1.35274277 19.1392803,1.35274277 19.3122678,1.4400165 L35.7238159,9.75027216 C35.8955314,9.83690417 35.8955314,9.97744054 35.7238159,10.0640725 L19.3116318,18.3749699 C19.1392803,18.4616019 18.8607197,18.4616019 18.6890042,18.3749699 L2.27682008,10.0640725 C2.10574059,9.97744054 2.10574059,9.83690417 2.27682008,9.75027216 Z M1.21854393,11.2538188 C1.21854393,11.0593781 1.3565523,10.9727461 1.52890377,11.0593781 L18.6890042,19.7495311 L18.7036318,19.7553066 L18.694728,19.7527397 C18.5268285,19.6673911 18.3900921,19.7559483 18.3900921,19.9491056 L18.3900921,40.0586409 C18.3900921,40.2530816 18.2508117,40.3397136 18.0797322,40.2530816 L1.52890377,31.8709534 C1.3565523,31.7836797 1.21854393,31.5565113 1.21854393,31.3627123 L1.21854393,11.2538188 Z" id="Shape" fill="url(#linearGradient-2)" opacity="0.521391369"></path>
                </g>
                <path d="M54.9706957,46.7713434 C54.993137,46.7053149 55.0032575,46.6348991 54.9990773,46.5631672 C54.9968772,46.5267528 54.9911568,46.4898997 54.9812563,46.4532659 C54.9812563,46.4530466 54.9810363,46.4528272 54.9810363,46.4528272 L54.1232081,43.2597679 C54.0446637,42.9669172 53.7414867,42.7944973 53.4495303,42.8717133 C53.1560339,42.9500262 52.9817841,43.2509933 53.0603285,43.5434052 L53.5784576,45.4720517 L44.5308899,40.2639166 L44.5308899,29.8724345 L45.9369888,31.2743885 C46.0443548,31.381438 46.1851627,31.4349627 46.3259706,31.4349627 C46.4667785,31.4349627 46.6073664,31.381438 46.7149524,31.2743885 C46.9299045,31.0602894 46.9299045,30.7130365 46.7149524,30.4989375 L44.3698409,28.1607388 C44.1548888,27.9464204 43.8066093,27.9464204 43.5920972,28.1607388 L41.2469856,30.4989375 C41.0320336,30.7130365 41.0320336,31.0602894 41.2469856,31.2743885 C41.3543516,31.381438 41.4951596,31.4349627 41.6359675,31.4349627 C41.7767754,31.4349627 41.9175833,31.381438 42.0249493,31.2743885 L43.4310482,29.8724345 L43.4310482,40.2639166 L34.427703,45.4463861 L34.9431919,43.5284885 C35.0217363,43.2358572 34.8477065,42.9351094 34.5542101,42.8565772 C34.2607136,42.7789224 33.9590767,42.9520005 33.8805323,43.2444124 L33.0288645,46.4133417 C32.9811218,46.5568056 32.9905823,46.7186961 33.0724269,46.859747 C33.1573517,47.006282 33.3005797,47.0951244 33.4559085,47.1218867 L36.6144057,47.9655599 C36.6621484,47.978283 36.7101111,47.9844252 36.7569737,47.9844252 C36.9998673,47.9844252 37.2220798,47.8227541 37.2880835,47.5777247 C37.3666279,47.2853128 37.1923781,46.984565 36.8991017,46.9060328 L34.9816941,46.3938183 L43.980859,41.2137618 L53.0110457,46.4120255 L51.1044187,46.9213882 C50.8111423,46.9997011 50.6368925,47.3006682 50.7154369,47.5932995 C50.7814406,47.8381095 51.0036531,48 51.2463267,48 C51.2936294,48 51.3415921,47.9938578 51.3891147,47.9811347 L54.5922745,47.1253966 C54.7597039,47.0806464 54.886211,46.9624093 54.9511146,46.8154355 C54.9572749,46.8016156 54.9649754,46.7884538 54.9700357,46.7741951 C54.9702557,46.7730983 54.9702557,46.7722209 54.9706957,46.7713434 Z" id="Path" fill="#00B655"></path>
            </g>
        </g>
    </g>
</svg>